<mxfile host="65bd71144e">
    <diagram name="第 1 页" id="gcvqBqKdxTJfSHki19oz">
        <mxGraphModel dx="493" dy="384" grid="1" gridSize="10" guides="1" tooltips="1" connect="1" arrows="1" fold="1" page="1" pageScale="1" pageWidth="827" pageHeight="1169" math="0" shadow="0">
            <root>
                <mxCell id="0"/>
                <mxCell id="1" parent="0"/>
                <mxCell id="2" style="edgeStyle=none;html=1;exitX=0.5;exitY=1;exitDx=0;exitDy=0;entryX=0.5;entryY=0;entryDx=0;entryDy=0;endArrow=none;endFill=0;" parent="1" source="awnkAKVBkHFtVjLc0B4l-4" target="awnkAKVBkHFtVjLc0B4l-16" edge="1">
                    <mxGeometry relative="1" as="geometry"/>
                </mxCell>
                <mxCell id="3" style="edgeStyle=none;html=1;exitX=1;exitY=0.5;exitDx=0;exitDy=0;entryX=0;entryY=0.5;entryDx=0;entryDy=0;endArrow=none;endFill=0;" parent="1" source="awnkAKVBkHFtVjLc0B4l-4" target="awnkAKVBkHFtVjLc0B4l-8" edge="1">
                    <mxGeometry relative="1" as="geometry"/>
                </mxCell>
                <mxCell id="awnkAKVBkHFtVjLc0B4l-4" value="&lt;font style=&quot;color: rgb(0, 0, 0); font-size: 18px;&quot;&gt;A&lt;/font&gt;" style="ellipse;whiteSpace=wrap;html=1;aspect=fixed;fillColor=#66B2FF;" parent="1" vertex="1">
                    <mxGeometry x="120" y="120" width="40" height="40" as="geometry"/>
                </mxCell>
                <mxCell id="awnkAKVBkHFtVjLc0B4l-6" value="" style="edgeStyle=orthogonalEdgeStyle;rounded=0;orthogonalLoop=1;jettySize=auto;html=1;endArrow=none;endFill=0;" parent="1" edge="1">
                    <mxGeometry relative="1" as="geometry">
                        <mxPoint x="256" y="160" as="sourcePoint"/>
                        <mxPoint x="256" y="240" as="targetPoint"/>
                    </mxGeometry>
                </mxCell>
                <mxCell id="awnkAKVBkHFtVjLc0B4l-8" value="&lt;font style=&quot;color: rgb(0, 0, 0); font-size: 18px;&quot;&gt;B&lt;/font&gt;" style="ellipse;whiteSpace=wrap;html=1;aspect=fixed;fillColor=#66B2FF;" parent="1" vertex="1">
                    <mxGeometry x="240" y="120" width="40" height="40" as="geometry"/>
                </mxCell>
                <mxCell id="awnkAKVBkHFtVjLc0B4l-12" value="&lt;font style=&quot;color: rgb(0, 0, 0); font-size: 18px;&quot;&gt;C&lt;/font&gt;" style="ellipse;whiteSpace=wrap;html=1;aspect=fixed;fillColor=#66B2FF;" parent="1" vertex="1">
                    <mxGeometry x="240" y="240" width="40" height="40" as="geometry"/>
                </mxCell>
                <mxCell id="4" style="edgeStyle=none;html=1;exitX=1;exitY=0;exitDx=0;exitDy=0;entryX=0;entryY=1;entryDx=0;entryDy=0;endArrow=none;endFill=0;" parent="1" source="awnkAKVBkHFtVjLc0B4l-16" target="awnkAKVBkHFtVjLc0B4l-18" edge="1">
                    <mxGeometry relative="1" as="geometry"/>
                </mxCell>
                <mxCell id="awnkAKVBkHFtVjLc0B4l-16" value="&lt;font style=&quot;color: rgb(0, 0, 0); font-size: 18px;&quot;&gt;D&lt;/font&gt;" style="ellipse;whiteSpace=wrap;html=1;aspect=fixed;fillColor=#66B2FF;" parent="1" vertex="1">
                    <mxGeometry x="120" y="240" width="40" height="40" as="geometry"/>
                </mxCell>
                <mxCell id="awnkAKVBkHFtVjLc0B4l-17" value="&lt;font style=&quot;font-size: 18px;&quot;&gt;无向图的深度优先遍历&lt;/font&gt;" style="text;html=1;align=center;verticalAlign=middle;whiteSpace=wrap;rounded=0;" parent="1" vertex="1">
                    <mxGeometry x="200" y="70" width="200" height="30" as="geometry"/>
                </mxCell>
                <mxCell id="5" style="edgeStyle=none;html=1;exitX=1;exitY=0;exitDx=0;exitDy=0;entryX=0;entryY=1;entryDx=0;entryDy=0;endArrow=none;endFill=0;" parent="1" source="awnkAKVBkHFtVjLc0B4l-18" target="awnkAKVBkHFtVjLc0B4l-8" edge="1">
                    <mxGeometry relative="1" as="geometry"/>
                </mxCell>
                <mxCell id="6" style="edgeStyle=none;html=1;exitX=1;exitY=1;exitDx=0;exitDy=0;entryX=0;entryY=0;entryDx=0;entryDy=0;endArrow=none;endFill=0;" parent="1" source="awnkAKVBkHFtVjLc0B4l-18" target="awnkAKVBkHFtVjLc0B4l-12" edge="1">
                    <mxGeometry relative="1" as="geometry"/>
                </mxCell>
                <mxCell id="awnkAKVBkHFtVjLc0B4l-18" value="&lt;span style=&quot;font-size: 18px;&quot;&gt;E&lt;/span&gt;" style="ellipse;whiteSpace=wrap;html=1;aspect=fixed;fillColor=#66B2FF;" parent="1" vertex="1">
                    <mxGeometry x="180" y="180" width="40" height="40" as="geometry"/>
                </mxCell>
                <mxCell id="7" value="深度优先遍历，从A点开始所有合法的路径：&lt;div&gt;&lt;br&gt;&lt;/div&gt;&lt;div&gt;&lt;p data-pm-slice=&quot;1 1 []&quot;&gt;A -&amp;gt; B -&amp;gt; E -&amp;gt; D -&amp;gt; C&lt;/p&gt;&lt;p data-pm-slice=&quot;1 1 []&quot;&gt;A -&amp;gt; B -&amp;gt; E -&amp;gt; C -&amp;gt; D&lt;/p&gt;&lt;p data-pm-slice=&quot;1 1 []&quot;&gt;A -&amp;gt; B -&amp;gt; C -&amp;gt; E -&amp;gt; D&lt;/p&gt;&lt;p data-pm-slice=&quot;1 1 []&quot;&gt;A -&amp;gt; D -&amp;gt; E -&amp;gt; B -&amp;gt; C&lt;/p&gt;&lt;p data-pm-slice=&quot;1 1 []&quot;&gt;A -&amp;gt; D -&amp;gt; E -&amp;gt; C -&amp;gt; B&lt;/p&gt;&lt;/div&gt;" style="text;html=1;align=left;verticalAlign=middle;resizable=0;points=[];autosize=1;strokeColor=none;fillColor=none;" parent="1" vertex="1">
                    <mxGeometry x="320" y="110" width="260" height="190" as="geometry"/>
                </mxCell>
            </root>
        </mxGraphModel>
    </diagram>
</mxfile>